<mxfile host="65bd71144e">
    <diagram id="fIZFRAnkgcQ-W2YFJItv" name="ページ1">
        <mxGraphModel dx="1216" dy="478" grid="1" gridSize="10" guides="1" tooltips="1" connect="1" arrows="1" fold="1" page="1" pageScale="1" pageWidth="827" pageHeight="1169" math="1" shadow="0">
            <root>
                <mxCell id="0"/>
                <mxCell id="1" parent="0"/>
                <mxCell id="2" value="" style="html=1;verticalLabelPosition=bottom;align=center;labelBackgroundColor=#ffffff;verticalAlign=top;strokeWidth=2;strokeColor=#0080F0;shadow=0;dashed=0;shape=mxgraph.ios7.icons.chat;" vertex="1" parent="1">
                    <mxGeometry x="280" y="220" width="170" height="60" as="geometry"/>
                </mxCell>
                <mxCell id="6" value="" style="html=1;verticalLabelPosition=bottom;align=center;labelBackgroundColor=#ffffff;verticalAlign=top;strokeWidth=2;strokeColor=#0080F0;shadow=0;dashed=0;shape=mxgraph.ios7.icons.move_to_folder;" vertex="1" parent="1">
                    <mxGeometry x="260" y="280" width="64.29" height="50" as="geometry"/>
                </mxCell>
                <mxCell id="8" value="" style="html=1;verticalLabelPosition=bottom;align=center;labelBackgroundColor=#ffffff;verticalAlign=top;strokeWidth=2;strokeColor=#0080F0;shadow=0;dashed=0;shape=mxgraph.ios7.icons.user;" vertex="1" parent="1">
                    <mxGeometry x="414" y="280" width="60" height="60" as="geometry"/>
                </mxCell>
                <mxCell id="9" value="$$I\in \mathcal{F}$$" style="text;html=1;align=center;verticalAlign=middle;resizable=0;points=[];autosize=1;strokeColor=none;fillColor=none;" vertex="1" parent="1">
                    <mxGeometry x="240" y="227" width="130" height="30" as="geometry"/>
                </mxCell>
                <mxCell id="10" value="?" style="text;html=1;align=center;verticalAlign=middle;resizable=0;points=[];autosize=1;strokeColor=none;fillColor=none;" vertex="1" parent="1">
                    <mxGeometry x="315" y="227" width="30" height="30" as="geometry"/>
                </mxCell>
                <mxCell id="11" value="Yes / No" style="text;html=1;align=center;verticalAlign=middle;resizable=0;points=[];autosize=1;strokeColor=none;fillColor=none;" vertex="1" parent="1">
                    <mxGeometry x="359" y="235" width="70" height="30" as="geometry"/>
                </mxCell>
                <mxCell id="12" value="オラクル" style="text;html=1;align=center;verticalAlign=middle;resizable=0;points=[];autosize=1;strokeColor=none;fillColor=none;" vertex="1" parent="1">
                    <mxGeometry x="409" y="340" width="70" height="30" as="geometry"/>
                </mxCell>
                <mxCell id="13" value="アルゴリズム" style="text;html=1;align=center;verticalAlign=middle;resizable=0;points=[];autosize=1;strokeColor=none;fillColor=none;" vertex="1" parent="1">
                    <mxGeometry x="247.14" y="340" width="90" height="30" as="geometry"/>
                </mxCell>
            </root>
        </mxGraphModel>
    </diagram>
</mxfile>